<svg width="1104" height="313" viewBox="0 0 1104 313" fill="none" xmlns="http://www.w3.org/2000/svg">
<path opacity="0.4" d="M436.328 171.094L446.172 173.516C447.148 165.43 446.836 157.891 445.977 151.367C444.492 155.273 442.852 158.906 441.25 162.148C439.766 165.117 438.164 168.086 436.367 171.055L436.328 171.094ZM438.555 62.5L467.461 72.9297C471.484 70.2344 475.859 68.0078 480.508 66.25L542.773 42.8906C546.016 41.6797 549.609 43.3203 550.82 46.5625C552.031 49.8047 550.391 53.3984 547.148 54.6094L484.922 77.9688C484.336 78.1641 483.789 78.3984 483.242 78.6328L540 99.1406C541.602 99.7266 543.281 100 545 100C546.719 100 548.398 99.6875 550 99.1406L651.406 62.5L550 25.8594C548.398 25.2734 546.719 25 545 25C543.281 25 541.602 25.3125 540 25.8594L438.594 62.5H438.555ZM482.656 158.711C482.93 159.023 483.359 159.531 484.102 160.156C486.445 162.187 490.547 164.648 496.562 166.992C508.437 171.641 525.586 175 545 175C564.414 175 581.563 171.641 593.477 166.953C599.492 164.609 603.555 162.148 605.938 160.117C606.68 159.492 607.109 159.023 607.383 158.672L601.914 106.953L558.477 122.656C554.141 124.219 549.57 125 545 125C540.43 125 535.82 124.219 531.523 122.656C517.07 117.422 502.578 112.187 488.086 106.992L482.656 158.711Z" fill="#004E8A"/>
<path d="M540 25.8594L438.594 62.5L467.5 72.9297C471.523 70.2344 475.898 68.0078 480.547 66.25L542.812 42.8906C546.055 41.6797 549.648 43.3203 550.859 46.5625C552.07 49.8047 550.43 53.3984 547.188 54.6094L484.922 77.9688C484.336 78.1641 483.789 78.3984 483.242 78.6328L540 99.1406C541.602 99.7266 543.281 100 545 100C546.719 100 548.398 99.6875 550 99.1406L651.406 62.5L550 25.8594C548.398 25.2734 546.719 25 545 25C543.281 25 541.602 25.3125 540 25.8594ZM535.742 110.898L469.57 86.9922C458.828 96.0938 452.07 109.336 451.328 123.789C453.633 128.945 455.312 134.531 456.562 140C459.062 150.781 460.742 165.742 457.383 182.461C457.031 184.141 456.055 185.586 454.609 186.523C453.164 187.461 451.406 187.734 449.766 187.305L424.766 181.055C422.734 180.547 421.094 179.063 420.391 177.07C419.688 175.078 420.039 172.891 421.289 171.25C424.648 166.68 427.539 161.641 430.078 156.563C434.531 147.578 438.75 136.094 438.75 125C438.75 124.766 438.75 124.531 438.789 124.297C439.336 108.281 445.82 93.3984 456.406 82.2266L426.172 71.3281C422.461 69.9609 420 66.4453 420 62.5C420 58.5547 422.461 55.0391 426.172 53.6719L535.742 14.1016C538.711 13.0469 541.836 12.5 545 12.5C548.164 12.5 551.289 13.0469 554.258 14.1016L663.828 53.6719C667.539 55 670 58.5547 670 62.5C670 66.4453 667.539 69.9609 663.828 71.3281L554.258 110.898C551.289 111.953 548.164 112.5 545 112.5C541.836 112.5 538.711 111.953 535.742 110.898ZM488.086 106.992L482.656 158.711C482.93 159.023 483.359 159.531 484.102 160.156C486.445 162.188 490.547 164.648 496.562 166.992C508.437 171.641 525.586 175 545 175C564.414 175 581.563 171.641 593.477 166.953C599.492 164.609 603.555 162.148 605.938 160.117C606.68 159.492 607.109 159.023 607.383 158.672L601.914 106.953L614.023 102.578L620 159.375C620 173.164 586.406 187.5 545 187.5C503.594 187.5 470 173.164 470 159.375L475.977 102.578L488.086 106.953V106.992ZM607.695 158.203C607.695 158.203 607.695 158.203 607.656 158.242C607.656 158.203 607.695 158.203 607.695 158.203ZM482.305 158.203C482.305 158.203 482.305 158.203 482.344 158.242C482.344 158.203 482.305 158.203 482.305 158.203ZM446.172 173.516C447.148 165.43 446.836 157.891 445.977 151.367C444.492 155.273 442.852 158.906 441.25 162.148C439.766 165.117 438.164 168.086 436.367 171.055L446.172 173.516Z" fill="#004E8A"/>
<path d="M329.607 62.5C329.607 60.7812 328.209 59.375 326.5 59.375C324.791 59.375 323.393 60.7812 323.393 62.5V96.875H289.214C287.505 96.875 286.107 98.2812 286.107 100C286.107 101.719 287.505 103.125 289.214 103.125H323.393V137.5C323.393 139.219 324.791 140.625 326.5 140.625C328.209 140.625 329.607 139.219 329.607 137.5V103.125H363.786C365.495 103.125 366.893 101.719 366.893 100C366.893 98.2812 365.495 96.875 363.786 96.875H329.607V62.5Z" fill="black"/>
<path d="M726.286 78.125C724.557 78.125 723.143 79.5312 723.143 81.25C723.143 82.9688 724.557 84.375 726.286 84.375H801.714C803.443 84.375 804.857 82.9688 804.857 81.25C804.857 79.5312 803.443 78.125 801.714 78.125H726.286ZM726.286 115.625C724.557 115.625 723.143 117.031 723.143 118.75C723.143 120.469 724.557 121.875 726.286 121.875H801.714C803.443 121.875 804.857 120.469 804.857 118.75C804.857 117.031 803.443 115.625 801.714 115.625H726.286Z" fill="black"/>
<g clip-path="url(#clip0_1_28)">
<path opacity="0.4" d="M920.5 25C920.5 18.0859 926.086 12.5 933 12.5H983V56.25C983 66.6016 991.398 75 1001.75 75H1045.5V175C1045.5 181.914 1039.91 187.5 1033 187.5H945.5V162.5C946.008 162.305 946.477 162.109 946.984 161.914C949.641 160.742 952.57 158.867 955.031 155.859C957.531 152.773 958.977 149.141 959.484 145.273C959.68 143.867 959.797 143.047 959.914 142.5C960.344 142.148 961.008 141.602 962.102 140.742C969.875 134.727 972.688 124.258 968.938 115.156C968.391 113.867 968.117 113.047 967.922 112.539C968.117 111.992 968.391 111.211 968.938 109.922C972.648 100.82 969.875 90.3516 962.102 84.3359C961.008 83.4766 960.344 82.9297 959.914 82.5781C959.797 82.0312 959.68 81.1719 959.484 79.8047C958.156 70.0781 950.5 62.3828 940.773 61.0937C939.367 60.8984 938.547 60.7813 938 60.6641C937.648 60.2344 937.102 59.5703 936.242 58.4766C932.336 53.4375 926.594 50.5078 920.539 50.0391L920.5 25Z" fill="#004E8A"/>
<path d="M1045.5 175C1045.5 181.914 1039.91 187.5 1033 187.5H945.5V193.75C945.5 195.898 945.11 198.008 944.445 200H1033C1046.79 200 1058 188.789 1058 175V64.0234C1058 59.0625 1056.01 54.2969 1052.49 50.7812L1007.26 5.50781C1003.74 1.99219 998.977 0 994.016 0H933C919.211 0 908 11.2109 908 25V52.7734L908.039 52.7344C908.625 52.4609 909.602 51.9531 910.617 51.5625C913.82 50.2344 917.219 49.7656 920.5 50V25C920.5 18.0859 926.086 12.5 933 12.5H983V56.25C983 66.6016 991.399 75 1001.75 75H1045.5V175ZM1045.3 62.5H1001.75C998.313 62.5 995.5 59.6875 995.5 56.25V12.6953C996.594 12.9687 997.61 13.5156 998.391 14.3359L1043.66 59.6094C1044.48 60.4297 1045.03 61.4063 1045.3 62.5ZM955.578 112.5C955.578 112.187 955.656 111.563 956.945 108.438C959.406 102.422 957.57 95.5078 952.414 91.5625C949.719 89.4922 949.367 88.9844 949.211 88.7109C949.055 88.4375 948.82 87.8906 948.352 84.5312C947.492 78.0859 942.414 73.0469 936.008 72.1875C932.649 71.7188 932.102 71.4844 931.828 71.3281C931.555 71.1719 931.047 70.8203 928.977 68.125C924.992 63.0078 918.078 61.1328 912.102 63.5938C908.977 64.8828 908.352 64.9609 908.039 64.9609C907.727 64.9609 907.102 64.8828 903.977 63.5938C897.961 61.1328 891.047 62.9687 887.102 68.125C885.031 70.8203 884.524 71.1719 884.25 71.3281C883.977 71.4844 883.43 71.7188 880.07 72.1875C873.586 73.0469 868.547 78.0859 867.649 84.5312C867.18 87.8906 866.945 88.4375 866.789 88.7109C866.633 88.9844 866.281 89.4922 863.586 91.5625C858.469 95.5078 856.633 102.422 859.094 108.438C860.383 111.563 860.461 112.187 860.461 112.5C860.461 112.813 860.383 113.437 859.094 116.562C856.633 122.578 858.469 129.492 863.625 133.438C866.32 135.508 866.672 136.016 866.828 136.289C866.985 136.562 867.219 137.109 867.688 140.469C868.547 146.914 873.586 151.953 880.031 152.852C881.477 153.047 882.414 153.203 883 153.32V193.75C883 196.055 884.25 198.164 886.32 199.258C888.391 200.352 890.813 200.234 892.727 198.945L908 188.75L923.274 198.945C925.188 200.234 927.649 200.352 929.68 199.258C931.711 198.164 933 196.055 933 193.75V153.32C933.625 153.203 934.524 153.047 935.969 152.852C942.414 151.992 947.453 146.914 948.313 140.508C948.781 137.148 949.016 136.602 949.172 136.328C949.328 136.055 949.68 135.547 952.375 133.477C957.492 129.492 959.367 122.578 956.906 116.602C955.617 113.477 955.539 112.852 955.539 112.539L955.578 112.5ZM895.5 182.07V162.188C898.274 162.773 901.203 162.539 903.938 161.406C907.063 160.117 907.688 160.039 908 160.039C908.313 160.039 908.938 160.117 912.063 161.406C914.797 162.539 917.727 162.734 920.5 162.188V182.07L911.477 176.055C909.367 174.648 906.633 174.648 904.524 176.055L895.5 182.07ZM872.922 112.5C872.922 109.336 871.789 106.484 870.656 103.711C870.344 102.891 870.578 101.992 871.281 101.445C873.664 99.6094 876.086 97.6953 877.649 94.9609C879.211 92.2266 879.68 89.1797 880.07 86.2109C880.188 85.3516 880.852 84.6875 881.711 84.5703C884.719 84.1797 887.727 83.7109 890.461 82.1484C893.195 80.5859 895.07 78.1641 896.945 75.7812C897.492 75.0781 898.391 74.8437 899.211 75.1562C901.985 76.2891 904.836 77.4219 908 77.4219C911.164 77.4219 914.016 76.2891 916.789 75.1562C917.61 74.8437 918.508 75.0781 919.055 75.7812C920.891 78.1641 922.805 80.5859 925.539 82.1484C928.274 83.7109 931.32 84.1797 934.289 84.5703C935.149 84.6875 935.813 85.3516 935.93 86.2109C936.32 89.2187 936.789 92.2266 938.352 94.9609C939.914 97.6953 942.336 99.5703 944.719 101.445C945.422 101.992 945.656 102.891 945.344 103.711C944.211 106.484 943.078 109.336 943.078 112.5C943.078 115.664 944.211 118.516 945.344 121.289C945.656 122.109 945.422 123.008 944.719 123.555C942.336 125.391 939.914 127.305 938.352 130.039C936.789 132.773 936.32 135.82 935.93 138.789C935.813 139.648 935.149 140.312 934.289 140.43C931.281 140.82 928.274 141.289 925.539 142.852C922.805 144.414 920.93 146.836 919.055 149.219C918.508 149.922 917.61 150.156 916.789 149.844C914.016 148.711 911.164 147.578 908 147.578C904.836 147.578 901.985 148.711 899.211 149.844C898.391 150.156 897.492 149.922 896.945 149.219C895.11 146.836 893.195 144.414 890.461 142.852C887.727 141.289 884.68 140.82 881.711 140.43C880.852 140.312 880.188 139.648 880.07 138.789C879.68 135.781 879.211 132.773 877.649 130.039C876.086 127.305 873.664 125.43 871.281 123.555C870.578 123.008 870.344 122.109 870.656 121.289C871.789 118.516 872.922 115.664 872.922 112.5Z" fill="#004E8A"/>
</g>
<g clip-path="url(#clip1_1_28)">
<path opacity="0.4" d="M46.3984 62.5H113.234C111.867 59.6484 111.125 56.4844 111.125 53.125C111.125 41.0547 120.93 31.25 133 31.25C145.07 31.25 154.875 41.0547 154.875 53.125C154.875 56.4844 154.133 59.6484 152.766 62.5H219.602L133 13.4375L46.3984 62.5ZM70.5 87.5V137.5H101.75V87.5H70.5ZM114.25 87.5V137.5H151.75V87.5H114.25ZM164.25 87.5V137.5H195.5V87.5H164.25Z" fill="#004E8A"/>
<path d="M136.086 0.820312C134.172 -0.273438 131.828 -0.273438 129.914 0.820312L39.1719 52.2266C35.3438 54.4141 33 58.4375 33 62.8125C33 69.5313 38.4688 75 45.1875 75H133H220.812C227.531 75 233 69.5313 233 62.8125C233 58.4375 230.656 54.375 226.828 52.2266L136.086 0.820312ZM152.766 62.5C154.133 59.6484 154.875 56.4844 154.875 53.125C154.875 41.0547 145.07 31.25 133 31.25C120.93 31.25 111.125 41.0547 111.125 53.125C111.125 56.4844 111.867 59.6484 113.234 62.5H46.3984L133 13.4375L219.602 62.5H152.766ZM133 43.75C135.486 43.75 137.871 44.7377 139.629 46.4959C141.387 48.254 142.375 50.6386 142.375 53.125C142.375 55.6114 141.387 57.996 139.629 59.7541C137.871 61.5123 135.486 62.5 133 62.5C130.514 62.5 128.129 61.5123 126.371 59.7541C124.613 57.996 123.625 55.6114 123.625 53.125C123.625 50.6386 124.613 48.254 126.371 46.4959C128.129 44.7377 130.514 43.75 133 43.75ZM58 137.5C54.5625 137.5 51.75 140.312 51.75 143.75C51.75 147.188 54.5625 150 58 150H208C211.438 150 214.25 147.188 214.25 143.75C214.25 140.312 211.438 137.5 208 137.5V87.5H195.5V137.5H164.25V87.5H151.75V137.5H114.25V87.5H101.75V137.5H70.5V87.5H58V137.5ZM48.625 162.5C45.1875 162.5 42.375 165.312 42.375 168.75C42.375 172.188 45.1875 175 48.625 175H217.375C220.813 175 223.625 172.188 223.625 168.75C223.625 165.312 220.813 162.5 217.375 162.5H48.625ZM39.25 187.5C35.8125 187.5 33 190.312 33 193.75C33 197.188 35.8125 200 39.25 200H226.75C230.188 200 233 197.188 233 193.75C233 190.312 230.188 187.5 226.75 187.5H39.25Z" fill="#004E8A"/>
</g>
<path d="M16.1023 266L8.625 256.08H6.94318V266H2.02273V242.727H6.94318V252.023H7.93182L15.6591 242.727H21.7841L12.7045 253.523L22.2045 266H16.1023ZM31.1932 266.341C29.428 266.341 27.9015 265.966 26.6136 265.216C25.3333 264.458 24.3447 263.405 23.6477 262.057C22.9508 260.701 22.6023 259.129 22.6023 257.341C22.6023 255.538 22.9508 253.962 23.6477 252.614C24.3447 251.258 25.3333 250.205 26.6136 249.455C27.9015 248.697 29.428 248.318 31.1932 248.318C32.9583 248.318 34.4811 248.697 35.7614 249.455C37.0492 250.205 38.0417 251.258 38.7386 252.614C39.4356 253.962 39.7841 255.538 39.7841 257.341C39.7841 259.129 39.4356 260.701 38.7386 262.057C38.0417 263.405 37.0492 264.458 35.7614 265.216C34.4811 265.966 32.9583 266.341 31.1932 266.341ZM31.2159 262.591C32.0189 262.591 32.6894 262.364 33.2273 261.909C33.7652 261.447 34.1705 260.818 34.4432 260.023C34.7235 259.227 34.8636 258.322 34.8636 257.307C34.8636 256.292 34.7235 255.386 34.4432 254.591C34.1705 253.795 33.7652 253.167 33.2273 252.705C32.6894 252.242 32.0189 252.011 31.2159 252.011C30.4053 252.011 29.7235 252.242 29.1705 252.705C28.625 253.167 28.2121 253.795 27.9318 254.591C27.6591 255.386 27.5227 256.292 27.5227 257.307C27.5227 258.322 27.6591 259.227 27.9318 260.023C28.2121 260.818 28.625 261.447 29.1705 261.909C29.7235 262.364 30.4053 262.591 31.2159 262.591ZM41.9091 266L41.8864 262.159H42.4659C42.875 262.159 43.2273 262.061 43.5227 261.864C43.8258 261.659 44.0758 261.33 44.2727 260.875C44.4697 260.42 44.625 259.818 44.7386 259.068C44.8523 258.311 44.928 257.379 44.9659 256.273L45.25 248.545H58.5227V266H53.9091V252.352H49.6023L49.3295 257.682C49.2614 259.144 49.0833 260.402 48.7955 261.455C48.5152 262.508 48.125 263.371 47.625 264.045C47.125 264.712 46.5227 265.205 45.8182 265.523C45.1136 265.841 44.2955 266 43.3636 266H41.9091ZM61.2528 266L61.2301 262.159H61.8097C62.2188 262.159 62.571 262.061 62.8665 261.864C63.1695 261.659 63.4195 261.33 63.6165 260.875C63.8134 260.42 63.9688 259.818 64.0824 259.068C64.196 258.311 64.2718 257.379 64.3097 256.273L64.5938 248.545H77.8665V266H73.2528V252.352H68.946L68.6733 257.682C68.6051 259.144 68.4271 260.402 68.1392 261.455C67.8589 262.508 67.4688 263.371 66.9688 264.045C66.4688 264.712 65.8665 265.205 65.1619 265.523C64.4574 265.841 63.6392 266 62.7074 266H61.2528ZM89.5739 266.341C87.7784 266.341 86.233 265.977 84.9375 265.25C83.6496 264.515 82.6572 263.477 81.9602 262.136C81.2633 260.788 80.9148 259.193 80.9148 257.352C80.9148 255.557 81.2633 253.981 81.9602 252.625C82.6572 251.269 83.6383 250.212 84.9034 249.455C86.1761 248.697 87.6686 248.318 89.3807 248.318C90.5322 248.318 91.6042 248.504 92.5966 248.875C93.5966 249.239 94.4678 249.788 95.2102 250.523C95.9602 251.258 96.5436 252.182 96.9602 253.295C97.3769 254.402 97.5852 255.697 97.5852 257.182V258.511H82.8466V255.511H93.0284C93.0284 254.814 92.8769 254.197 92.5739 253.659C92.2708 253.121 91.8504 252.701 91.3125 252.398C90.7822 252.087 90.1648 251.932 89.4602 251.932C88.7254 251.932 88.0739 252.102 87.5057 252.443C86.9451 252.777 86.5057 253.227 86.1875 253.795C85.8693 254.356 85.7064 254.981 85.6989 255.67V258.523C85.6989 259.386 85.858 260.133 86.1761 260.761C86.5019 261.39 86.9602 261.875 87.5511 262.216C88.142 262.557 88.8428 262.727 89.6534 262.727C90.1913 262.727 90.6837 262.652 91.1307 262.5C91.5777 262.348 91.9602 262.121 92.2784 261.818C92.5966 261.515 92.839 261.144 93.0057 260.705L97.483 261C97.2557 262.076 96.7898 263.015 96.0852 263.818C95.3883 264.614 94.4867 265.235 93.3807 265.682C92.2822 266.121 91.0133 266.341 89.5739 266.341ZM99.3807 271.114V262.159H100.722C101.108 261.917 101.419 261.53 101.653 261C101.896 260.47 102.093 259.845 102.244 259.125C102.403 258.405 102.525 257.629 102.608 256.795C102.699 255.955 102.778 255.106 102.847 254.25L103.301 248.545H116.688V262.159H119.392V271.114H114.778V266H104.108V271.114H99.3807ZM105.54 262.159H112.119V252.273H107.415L107.233 254.25C107.104 256.114 106.919 257.697 106.676 259C106.434 260.295 106.055 261.348 105.54 262.159ZM121.077 266L127.179 256.92L121.111 248.545H126.634L131.168 255.375H131.918V248.545H136.759V255.375H137.486L142.02 248.545H147.543L141.486 256.92L147.577 266H141.929L137.44 259.182H136.759V266H131.918V259.182H131.236L126.724 266H121.077ZM160.315 266.318V262.318H161.577C162.205 262.318 162.713 262.242 163.099 262.091C163.486 261.932 163.793 261.701 164.02 261.398C164.255 261.087 164.452 260.701 164.611 260.239L164.895 259.477L156.44 242.727H161.531L167.009 254.182L171.588 242.727H176.611L168.588 261.432C168.202 262.295 167.743 263.098 167.213 263.841C166.69 264.583 166.02 265.182 165.202 265.636C164.384 266.091 163.338 266.318 162.065 266.318H160.315ZM193.352 266L185.875 256.08H184.193V266H179.273V242.727H184.193V252.023H185.182L192.909 242.727H199.034L189.955 253.523L199.455 266H193.352ZM217.196 252.648V256.591H207.162V252.648H217.196ZM200.23 258.375H205.128C205.211 259.708 205.628 260.712 206.378 261.386C207.128 262.061 208.238 262.398 209.707 262.398C210.904 262.398 211.855 262.117 212.56 261.557C213.264 260.996 213.772 260.189 214.082 259.136C214.393 258.076 214.548 256.807 214.548 255.33V253.443C214.548 251.92 214.37 250.636 214.014 249.591C213.666 248.538 213.132 247.742 212.412 247.205C211.7 246.667 210.787 246.398 209.673 246.398C208.575 246.398 207.704 246.564 207.06 246.898C206.416 247.231 205.946 247.708 205.651 248.33C205.355 248.943 205.173 249.686 205.105 250.557H200.207C200.359 249.027 200.798 247.648 201.526 246.42C202.26 245.186 203.302 244.208 204.651 243.489C206.007 242.769 207.681 242.409 209.673 242.409C211.651 242.409 213.366 242.86 214.821 243.761C216.276 244.663 217.401 245.939 218.196 247.591C218.991 249.242 219.389 251.197 219.389 253.455V255.341C219.389 257.598 218.999 259.549 218.219 261.193C217.446 262.83 216.336 264.095 214.889 264.989C213.442 265.875 211.715 266.318 209.707 266.318C207.791 266.318 206.147 265.985 204.776 265.318C203.404 264.644 202.332 263.712 201.56 262.523C200.787 261.326 200.344 259.943 200.23 258.375ZM227.557 259.614L233.841 248.545H238.614V266H234V254.898L227.739 266H222.932V248.545H227.557V259.614ZM262.369 242.727V266H257.506V246.727H248.097V266H243.233V242.727H262.369Z" fill="black"/>
<path d="M24.8409 298.273C24.8409 300.114 24.5085 301.705 23.8438 303.045C23.179 304.386 22.267 305.42 21.108 306.148C19.9489 306.875 18.625 307.239 17.1364 307.239C15.6477 307.239 14.3239 306.875 13.1648 306.148C12.0057 305.42 11.0938 304.386 10.429 303.045C9.7642 301.705 9.43182 300.114 9.43182 298.273C9.43182 296.432 9.7642 294.841 10.429 293.5C11.0938 292.159 12.0057 291.125 13.1648 290.398C14.3239 289.67 15.6477 289.307 17.1364 289.307C18.625 289.307 19.9489 289.67 21.108 290.398C22.267 291.125 23.179 292.159 23.8438 293.5C24.5085 294.841 24.8409 296.432 24.8409 298.273ZM22.7955 298.273C22.7955 296.761 22.5426 295.486 22.0369 294.446C21.5369 293.406 20.858 292.619 20 292.085C19.1477 291.551 18.1932 291.284 17.1364 291.284C16.0795 291.284 15.1222 291.551 14.2642 292.085C13.4119 292.619 12.733 293.406 12.2273 294.446C11.7273 295.486 11.4773 296.761 11.4773 298.273C11.4773 299.784 11.7273 301.06 12.2273 302.099C12.733 303.139 13.4119 303.926 14.2642 304.46C15.1222 304.994 16.0795 305.261 17.1364 305.261C18.1932 305.261 19.1477 304.994 20 304.46C20.858 303.926 21.5369 303.139 22.0369 302.099C22.5426 301.06 22.7955 299.784 22.7955 298.273ZM27.3722 295.784V293.909H38.0085V295.784H33.7131V307H31.7017V295.784H27.3722ZM53.7947 289.545V307H51.6811V291.761H51.5788L47.3175 294.591V292.443L51.6811 289.545H53.7947ZM73.6783 293.909V295.784H67.6101V307H65.5987V293.909H73.6783ZM81.2528 307.273C80.071 307.273 79.0341 306.991 78.142 306.429C77.2557 305.866 76.5625 305.08 76.0625 304.068C75.5682 303.057 75.321 301.875 75.321 300.523C75.321 299.159 75.5682 297.969 76.0625 296.952C76.5625 295.935 77.2557 295.145 78.142 294.582C79.0341 294.02 80.071 293.739 81.2528 293.739C82.4347 293.739 83.4688 294.02 84.3551 294.582C85.2472 295.145 85.9403 295.935 86.4347 296.952C86.9347 297.969 87.1847 299.159 87.1847 300.523C87.1847 301.875 86.9347 303.057 86.4347 304.068C85.9403 305.08 85.2472 305.866 84.3551 306.429C83.4688 306.991 82.4347 307.273 81.2528 307.273ZM81.2528 305.466C82.1506 305.466 82.8892 305.236 83.4688 304.776C84.0483 304.315 84.4773 303.71 84.7557 302.96C85.0341 302.21 85.1733 301.398 85.1733 300.523C85.1733 299.648 85.0341 298.832 84.7557 298.077C84.4773 297.321 84.0483 296.71 83.4688 296.244C82.8892 295.778 82.1506 295.545 81.2528 295.545C80.3551 295.545 79.6165 295.778 79.0369 296.244C78.4574 296.71 78.0284 297.321 77.75 298.077C77.4716 298.832 77.3324 299.648 77.3324 300.523C77.3324 301.398 77.4716 302.21 77.75 302.96C78.0284 303.71 78.4574 304.315 79.0369 304.776C79.6165 305.236 80.3551 305.466 81.2528 305.466ZM88.8572 310.75V305.125H89.9482C90.2152 304.847 90.4453 304.545 90.6385 304.222C90.8317 303.898 90.9993 303.514 91.1413 303.071C91.2891 302.622 91.4141 302.077 91.5163 301.435C91.6186 300.787 91.7095 300.006 91.7891 299.091L92.2322 293.909H100.55V305.125H102.562V310.75H100.55V307H90.8686V310.75H88.8572ZM92.2322 305.125H98.5391V295.784H94.1072L93.7663 299.091C93.6243 300.46 93.4482 301.656 93.2379 302.679C93.0277 303.702 92.6925 304.517 92.2322 305.125ZM109.084 307.307C108.254 307.307 107.501 307.151 106.825 306.838C106.149 306.52 105.612 306.062 105.214 305.466C104.817 304.864 104.618 304.136 104.618 303.284C104.618 302.534 104.766 301.926 105.061 301.46C105.357 300.989 105.751 300.619 106.246 300.352C106.74 300.085 107.286 299.886 107.882 299.756C108.484 299.619 109.089 299.511 109.697 299.432C110.493 299.33 111.138 299.253 111.632 299.202C112.132 299.145 112.496 299.051 112.723 298.92C112.956 298.79 113.072 298.562 113.072 298.239V298.17C113.072 297.33 112.842 296.676 112.382 296.21C111.928 295.744 111.237 295.511 110.311 295.511C109.351 295.511 108.598 295.722 108.053 296.142C107.507 296.562 107.124 297.011 106.902 297.489L104.993 296.807C105.334 296.011 105.788 295.392 106.357 294.949C106.93 294.5 107.555 294.187 108.232 294.011C108.913 293.83 109.584 293.739 110.243 293.739C110.663 293.739 111.146 293.79 111.692 293.892C112.243 293.989 112.774 294.19 113.286 294.497C113.803 294.804 114.232 295.267 114.572 295.886C114.913 296.506 115.084 297.335 115.084 298.375V307H113.072V305.227H112.97C112.834 305.511 112.607 305.815 112.288 306.139C111.97 306.463 111.547 306.739 111.018 306.966C110.49 307.193 109.845 307.307 109.084 307.307ZM109.391 305.5C110.186 305.5 110.857 305.344 111.402 305.031C111.953 304.719 112.368 304.315 112.646 303.821C112.93 303.327 113.072 302.807 113.072 302.261V300.42C112.987 300.523 112.8 300.616 112.51 300.702C112.226 300.781 111.896 300.852 111.521 300.915C111.152 300.972 110.791 301.023 110.439 301.068C110.092 301.108 109.811 301.142 109.595 301.17C109.072 301.239 108.584 301.349 108.129 301.503C107.68 301.651 107.317 301.875 107.038 302.176C106.766 302.472 106.629 302.875 106.629 303.386C106.629 304.085 106.888 304.614 107.405 304.972C107.928 305.324 108.589 305.5 109.391 305.5ZM131.607 289.545V307H129.494V291.761H129.391L125.13 294.591V292.443L129.494 289.545H131.607ZM142.32 307.239C141.036 307.239 139.942 306.889 139.039 306.19C138.136 305.486 137.445 304.466 136.968 303.131C136.491 301.79 136.252 300.17 136.252 298.273C136.252 296.386 136.491 294.776 136.968 293.44C137.451 292.099 138.144 291.077 139.048 290.372C139.957 289.662 141.048 289.307 142.32 289.307C143.593 289.307 144.681 289.662 145.585 290.372C146.494 291.077 147.187 292.099 147.664 293.44C148.147 294.776 148.388 296.386 148.388 298.273C148.388 300.17 148.15 301.79 147.673 303.131C147.195 304.466 146.505 305.486 145.602 306.19C144.698 306.889 143.604 307.239 142.32 307.239ZM142.32 305.364C143.593 305.364 144.582 304.75 145.286 303.523C145.991 302.295 146.343 300.545 146.343 298.273C146.343 296.761 146.181 295.474 145.857 294.412C145.539 293.349 145.079 292.54 144.477 291.983C143.88 291.426 143.161 291.148 142.32 291.148C141.059 291.148 140.073 291.77 139.363 293.014C138.653 294.253 138.298 296.006 138.298 298.273C138.298 299.784 138.457 301.068 138.775 302.125C139.093 303.182 139.55 303.986 140.147 304.537C140.749 305.088 141.474 305.364 142.32 305.364ZM165.57 304.273L170.138 293.909H172.048L166.388 307H164.752L159.195 293.909H161.07L165.57 304.273ZM160.423 293.909V307H158.411V293.909H160.423ZM170.718 307V293.909H172.729V307H170.718ZM181.9 307.273C180.638 307.273 179.55 306.994 178.636 306.438C177.727 305.875 177.025 305.091 176.531 304.085C176.042 303.074 175.798 301.898 175.798 300.557C175.798 299.216 176.042 298.034 176.531 297.011C177.025 295.983 177.712 295.182 178.593 294.608C179.479 294.028 180.513 293.739 181.695 293.739C182.377 293.739 183.05 293.852 183.715 294.08C184.38 294.307 184.985 294.676 185.531 295.188C186.076 295.693 186.511 296.364 186.835 297.199C187.158 298.034 187.32 299.062 187.32 300.284V301.136H177.229V299.398H185.275C185.275 298.659 185.127 298 184.832 297.42C184.542 296.841 184.127 296.384 183.587 296.048C183.053 295.713 182.423 295.545 181.695 295.545C180.894 295.545 180.201 295.744 179.616 296.142C179.036 296.534 178.59 297.045 178.278 297.676C177.965 298.307 177.809 298.983 177.809 299.705V300.864C177.809 301.852 177.979 302.69 178.32 303.378C178.667 304.06 179.147 304.58 179.761 304.938C180.374 305.29 181.087 305.466 181.9 305.466C182.428 305.466 182.906 305.392 183.332 305.244C183.763 305.091 184.136 304.864 184.448 304.562C184.761 304.256 185.002 303.875 185.173 303.42L187.116 303.966C186.911 304.625 186.567 305.205 186.085 305.705C185.602 306.199 185.005 306.585 184.295 306.864C183.585 307.136 182.786 307.273 181.9 307.273ZM195.698 307.273C194.471 307.273 193.414 306.983 192.528 306.403C191.641 305.824 190.96 305.026 190.482 304.009C190.005 302.991 189.766 301.83 189.766 300.523C189.766 299.193 190.011 298.02 190.499 297.003C190.994 295.98 191.681 295.182 192.562 294.608C193.448 294.028 194.482 293.739 195.664 293.739C196.585 293.739 197.414 293.909 198.153 294.25C198.891 294.591 199.496 295.068 199.968 295.682C200.44 296.295 200.732 297.011 200.846 297.83H198.835C198.681 297.233 198.34 296.705 197.812 296.244C197.289 295.778 196.585 295.545 195.698 295.545C194.914 295.545 194.227 295.75 193.636 296.159C193.05 296.562 192.593 297.134 192.263 297.872C191.94 298.605 191.778 299.466 191.778 300.455C191.778 301.466 191.937 302.347 192.255 303.097C192.579 303.847 193.033 304.429 193.619 304.844C194.21 305.259 194.903 305.466 195.698 305.466C196.221 305.466 196.695 305.375 197.121 305.193C197.548 305.011 197.908 304.75 198.204 304.409C198.499 304.068 198.71 303.659 198.835 303.182H200.846C200.732 303.955 200.451 304.651 200.002 305.27C199.559 305.884 198.971 306.372 198.238 306.736C197.511 307.094 196.664 307.273 195.698 307.273ZM211.661 307V295.75H208.184C207.4 295.75 206.783 295.932 206.335 296.295C205.886 296.659 205.661 297.159 205.661 297.795C205.661 298.42 205.863 298.912 206.266 299.27C206.675 299.628 207.235 299.807 207.945 299.807H212.173V301.682H207.945C207.059 301.682 206.295 301.526 205.653 301.213C205.011 300.901 204.516 300.455 204.17 299.875C203.823 299.29 203.65 298.597 203.65 297.795C203.65 296.989 203.832 296.295 204.195 295.716C204.559 295.136 205.079 294.69 205.755 294.378C206.437 294.065 207.246 293.909 208.184 293.909H213.57V307H211.661ZM202.934 307L206.65 300.489H208.832L205.116 307H202.934ZM227.558 293.909V305.125H229.399V311.227H227.388V307H217.263V293.909H219.274V305.125H225.547V293.909H227.558ZM237.845 307.273C236.584 307.273 235.496 306.994 234.581 306.438C233.672 305.875 232.97 305.091 232.476 304.085C231.987 303.074 231.743 301.898 231.743 300.557C231.743 299.216 231.987 298.034 232.476 297.011C232.97 295.983 233.658 295.182 234.538 294.608C235.425 294.028 236.459 293.739 237.641 293.739C238.322 293.739 238.996 293.852 239.661 294.08C240.325 294.307 240.93 294.676 241.476 295.188C242.021 295.693 242.456 296.364 242.78 297.199C243.104 298.034 243.266 299.062 243.266 300.284V301.136H233.175V299.398H241.22C241.22 298.659 241.072 298 240.777 297.42C240.487 296.841 240.072 296.384 239.533 296.048C238.999 295.713 238.368 295.545 237.641 295.545C236.839 295.545 236.146 295.744 235.561 296.142C234.982 296.534 234.536 297.045 234.223 297.676C233.911 298.307 233.754 298.983 233.754 299.705V300.864C233.754 301.852 233.925 302.69 234.266 303.378C234.612 304.06 235.092 304.58 235.706 304.938C236.32 305.29 237.033 305.466 237.845 305.466C238.374 305.466 238.851 305.392 239.277 305.244C239.709 305.091 240.081 304.864 240.393 304.562C240.706 304.256 240.947 303.875 241.118 303.42L243.061 303.966C242.857 304.625 242.513 305.205 242.03 305.705C241.547 306.199 240.95 306.585 240.24 306.864C239.53 307.136 238.732 307.273 237.845 307.273ZM246.325 307V293.909H251.678C253.087 293.909 254.206 294.227 255.036 294.864C255.865 295.5 256.28 296.341 256.28 297.386C256.28 298.182 256.044 298.798 255.572 299.236C255.101 299.668 254.496 299.96 253.757 300.114C254.24 300.182 254.709 300.352 255.163 300.625C255.624 300.898 256.004 301.273 256.305 301.75C256.607 302.222 256.757 302.801 256.757 303.489C256.757 304.159 256.587 304.759 256.246 305.287C255.905 305.815 255.416 306.233 254.78 306.54C254.143 306.847 253.382 307 252.496 307H246.325ZM248.234 305.159H252.496C253.189 305.159 253.732 304.994 254.124 304.665C254.516 304.335 254.712 303.886 254.712 303.318C254.712 302.642 254.516 302.111 254.124 301.724C253.732 301.332 253.189 301.136 252.496 301.136H248.234V305.159ZM248.234 299.398H251.678C252.217 299.398 252.68 299.324 253.067 299.176C253.453 299.023 253.749 298.807 253.953 298.528C254.163 298.244 254.268 297.909 254.268 297.523C254.268 296.972 254.038 296.54 253.578 296.227C253.118 295.909 252.484 295.75 251.678 295.75H248.234V299.398Z" fill="black"/>
<path d="M878.841 298.273C878.841 300.114 878.509 301.705 877.844 303.045C877.179 304.386 876.267 305.42 875.108 306.148C873.949 306.875 872.625 307.239 871.136 307.239C869.648 307.239 868.324 306.875 867.165 306.148C866.006 305.42 865.094 304.386 864.429 303.045C863.764 301.705 863.432 300.114 863.432 298.273C863.432 296.432 863.764 294.841 864.429 293.5C865.094 292.159 866.006 291.125 867.165 290.398C868.324 289.67 869.648 289.307 871.136 289.307C872.625 289.307 873.949 289.67 875.108 290.398C876.267 291.125 877.179 292.159 877.844 293.5C878.509 294.841 878.841 296.432 878.841 298.273ZM876.795 298.273C876.795 296.761 876.543 295.486 876.037 294.446C875.537 293.406 874.858 292.619 874 292.085C873.148 291.551 872.193 291.284 871.136 291.284C870.08 291.284 869.122 291.551 868.264 292.085C867.412 292.619 866.733 293.406 866.227 294.446C865.727 295.486 865.477 296.761 865.477 298.273C865.477 299.784 865.727 301.06 866.227 302.099C866.733 303.139 867.412 303.926 868.264 304.46C869.122 304.994 870.08 305.261 871.136 305.261C872.193 305.261 873.148 304.994 874 304.46C874.858 303.926 875.537 303.139 876.037 302.099C876.543 301.06 876.795 299.784 876.795 298.273ZM881.372 295.784V293.909H892.009V295.784H887.713V307H885.702V295.784H881.372ZM901.249 303.42V301.682L908.92 289.545H910.181V292.239H909.329L903.533 301.409V301.545H913.863V303.42H901.249ZM909.465 307V302.892V302.082V289.545H911.477V307H909.465ZM922.682 307V305.125H923.159C923.551 305.125 923.878 305.048 924.139 304.895C924.401 304.736 924.611 304.46 924.77 304.068C924.935 303.67 925.06 303.119 925.145 302.415C925.236 301.705 925.301 300.801 925.341 299.705L925.58 293.909H934.307V307H932.295V295.784H927.489L927.284 300.455C927.239 301.528 927.142 302.474 926.994 303.293C926.852 304.105 926.634 304.787 926.338 305.338C926.048 305.889 925.662 306.304 925.179 306.582C924.696 306.861 924.091 307 923.364 307H922.682ZM943.486 307.273C942.224 307.273 941.136 306.994 940.222 306.438C939.312 305.875 938.611 305.091 938.116 304.085C937.628 303.074 937.384 301.898 937.384 300.557C937.384 299.216 937.628 298.034 938.116 297.011C938.611 295.983 939.298 295.182 940.179 294.608C941.065 294.028 942.099 293.739 943.281 293.739C943.963 293.739 944.636 293.852 945.301 294.08C945.966 294.307 946.571 294.676 947.116 295.188C947.662 295.693 948.097 296.364 948.42 297.199C948.744 298.034 948.906 299.062 948.906 300.284V301.136H938.815V299.398H946.861C946.861 298.659 946.713 298 946.418 297.42C946.128 296.841 945.713 296.384 945.173 296.048C944.639 295.713 944.009 295.545 943.281 295.545C942.48 295.545 941.787 295.744 941.202 296.142C940.622 296.534 940.176 297.045 939.864 297.676C939.551 298.307 939.395 298.983 939.395 299.705V300.864C939.395 301.852 939.565 302.69 939.906 303.378C940.253 304.06 940.733 304.58 941.347 304.938C941.96 305.29 942.673 305.466 943.486 305.466C944.014 305.466 944.491 305.392 944.918 305.244C945.349 305.091 945.722 304.864 946.034 304.562C946.347 304.256 946.588 303.875 946.759 303.42L948.702 303.966C948.497 304.625 948.153 305.205 947.67 305.705C947.188 306.199 946.591 306.585 945.881 306.864C945.17 307.136 944.372 307.273 943.486 307.273ZM950.747 295.784V293.909H961.384V295.784H957.088V307H955.077V295.784H950.747ZM977.17 289.545V307H975.056V291.761H974.954L970.692 294.591V292.443L975.056 289.545H977.17ZM987.883 307.239C986.599 307.239 985.505 306.889 984.602 306.19C983.698 305.486 983.008 304.466 982.531 303.131C982.053 301.79 981.815 300.17 981.815 298.273C981.815 296.386 982.053 294.776 982.531 293.44C983.013 292.099 983.707 291.077 984.61 290.372C985.519 289.662 986.61 289.307 987.883 289.307C989.156 289.307 990.244 289.662 991.147 290.372C992.056 291.077 992.749 292.099 993.227 293.44C993.71 294.776 993.951 296.386 993.951 298.273C993.951 300.17 993.712 301.79 993.235 303.131C992.758 304.466 992.067 305.486 991.164 306.19C990.261 306.889 989.167 307.239 987.883 307.239ZM987.883 305.364C989.156 305.364 990.144 304.75 990.849 303.523C991.553 302.295 991.906 300.545 991.906 298.273C991.906 296.761 991.744 295.474 991.42 294.412C991.102 293.349 990.641 292.54 990.039 291.983C989.442 291.426 988.724 291.148 987.883 291.148C986.621 291.148 985.636 291.77 984.925 293.014C984.215 294.253 983.86 296.006 983.86 298.273C983.86 299.784 984.019 301.068 984.337 302.125C984.656 303.182 985.113 303.986 985.71 304.537C986.312 305.088 987.036 305.364 987.883 305.364ZM1011.13 304.273L1015.7 293.909H1017.61L1011.95 307H1010.31L1004.76 293.909H1006.63L1011.13 304.273ZM1005.99 293.909V307H1003.97V293.909H1005.99ZM1016.28 307V293.909H1018.29V307H1016.28ZM1027.46 307.273C1026.2 307.273 1025.11 306.994 1024.2 306.438C1023.29 305.875 1022.59 305.091 1022.09 304.085C1021.6 303.074 1021.36 301.898 1021.36 300.557C1021.36 299.216 1021.6 298.034 1022.09 297.011C1022.59 295.983 1023.27 295.182 1024.16 294.608C1025.04 294.028 1026.08 293.739 1027.26 293.739C1027.94 293.739 1028.61 293.852 1029.28 294.08C1029.94 294.307 1030.55 294.676 1031.09 295.188C1031.64 295.693 1032.07 296.364 1032.4 297.199C1032.72 298.034 1032.88 299.062 1032.88 300.284V301.136H1022.79V299.398H1030.84C1030.84 298.659 1030.69 298 1030.39 297.42C1030.1 296.841 1029.69 296.384 1029.15 296.048C1028.62 295.713 1027.99 295.545 1027.26 295.545C1026.46 295.545 1025.76 295.744 1025.18 296.142C1024.6 296.534 1024.15 297.045 1023.84 297.676C1023.53 298.307 1023.37 298.983 1023.37 299.705V300.864C1023.37 301.852 1023.54 302.69 1023.88 303.378C1024.23 304.06 1024.71 304.58 1025.32 304.938C1025.94 305.29 1026.65 305.466 1027.46 305.466C1027.99 305.466 1028.47 305.392 1028.89 305.244C1029.33 305.091 1029.7 304.864 1030.01 304.562C1030.32 304.256 1030.56 303.875 1030.74 303.42L1032.68 303.966C1032.47 304.625 1032.13 305.205 1031.65 305.705C1031.16 306.199 1030.57 306.585 1029.86 306.864C1029.15 307.136 1028.35 307.273 1027.46 307.273ZM1041.26 307.273C1040.03 307.273 1038.98 306.983 1038.09 306.403C1037.2 305.824 1036.52 305.026 1036.04 304.009C1035.57 302.991 1035.33 301.83 1035.33 300.523C1035.33 299.193 1035.57 298.02 1036.06 297.003C1036.56 295.98 1037.24 295.182 1038.12 294.608C1039.01 294.028 1040.04 293.739 1041.23 293.739C1042.15 293.739 1042.98 293.909 1043.72 294.25C1044.45 294.591 1045.06 295.068 1045.53 295.682C1046 296.295 1046.29 297.011 1046.41 297.83H1044.4C1044.24 297.233 1043.9 296.705 1043.37 296.244C1042.85 295.778 1042.15 295.545 1041.26 295.545C1040.48 295.545 1039.79 295.75 1039.2 296.159C1038.61 296.562 1038.16 297.134 1037.83 297.872C1037.5 298.605 1037.34 299.466 1037.34 300.455C1037.34 301.466 1037.5 302.347 1037.82 303.097C1038.14 303.847 1038.6 304.429 1039.18 304.844C1039.77 305.259 1040.47 305.466 1041.26 305.466C1041.78 305.466 1042.26 305.375 1042.68 305.193C1043.11 305.011 1043.47 304.75 1043.77 304.409C1044.06 304.068 1044.27 303.659 1044.4 303.182H1046.41C1046.29 303.955 1046.01 304.651 1045.56 305.27C1045.12 305.884 1044.53 306.372 1043.8 306.736C1043.07 307.094 1042.23 307.273 1041.26 307.273ZM1057.22 307V295.75H1053.75C1052.96 295.75 1052.35 295.932 1051.9 296.295C1051.45 296.659 1051.22 297.159 1051.22 297.795C1051.22 298.42 1051.43 298.912 1051.83 299.27C1052.24 299.628 1052.8 299.807 1053.51 299.807H1057.74V301.682H1053.51C1052.62 301.682 1051.86 301.526 1051.22 301.213C1050.57 300.901 1050.08 300.455 1049.73 299.875C1049.39 299.29 1049.21 298.597 1049.21 297.795C1049.21 296.989 1049.39 296.295 1049.76 295.716C1050.12 295.136 1050.64 294.69 1051.32 294.378C1052 294.065 1052.81 293.909 1053.75 293.909H1059.13V307H1057.22ZM1048.5 307L1052.21 300.489H1054.39L1050.68 307H1048.5ZM1073.12 293.909V305.125H1074.96V311.227H1072.95V307H1062.83V293.909H1064.84V305.125H1071.11V293.909H1073.12ZM1083.41 307.273C1082.15 307.273 1081.06 306.994 1080.14 306.438C1079.23 305.875 1078.53 305.091 1078.04 304.085C1077.55 303.074 1077.31 301.898 1077.31 300.557C1077.31 299.216 1077.55 298.034 1078.04 297.011C1078.53 295.983 1079.22 295.182 1080.1 294.608C1080.99 294.028 1082.02 293.739 1083.2 293.739C1083.88 293.739 1084.56 293.852 1085.22 294.08C1085.89 294.307 1086.49 294.676 1087.04 295.188C1087.58 295.693 1088.02 296.364 1088.34 297.199C1088.67 298.034 1088.83 299.062 1088.83 300.284V301.136H1078.74V299.398H1086.78C1086.78 298.659 1086.63 298 1086.34 297.42C1086.05 296.841 1085.63 296.384 1085.1 296.048C1084.56 295.713 1083.93 295.545 1083.2 295.545C1082.4 295.545 1081.71 295.744 1081.12 296.142C1080.54 296.534 1080.1 297.045 1079.79 297.676C1079.47 298.307 1079.32 298.983 1079.32 299.705V300.864C1079.32 301.852 1079.49 302.69 1079.83 303.378C1080.17 304.06 1080.65 304.58 1081.27 304.938C1081.88 305.29 1082.6 305.466 1083.41 305.466C1083.94 305.466 1084.41 305.392 1084.84 305.244C1085.27 305.091 1085.64 304.864 1085.96 304.562C1086.27 304.256 1086.51 303.875 1086.68 303.42L1088.62 303.966C1088.42 304.625 1088.08 305.205 1087.59 305.705C1087.11 306.199 1086.51 306.585 1085.8 306.864C1085.09 307.136 1084.29 307.273 1083.41 307.273ZM1091.89 307V293.909H1097.24C1098.65 293.909 1099.77 294.227 1100.6 294.864C1101.43 295.5 1101.84 296.341 1101.84 297.386C1101.84 298.182 1101.61 298.798 1101.13 299.236C1100.66 299.668 1100.06 299.96 1099.32 300.114C1099.8 300.182 1100.27 300.352 1100.73 300.625C1101.19 300.898 1101.57 301.273 1101.87 301.75C1102.17 302.222 1102.32 302.801 1102.32 303.489C1102.32 304.159 1102.15 304.759 1101.81 305.287C1101.47 305.815 1100.98 306.233 1100.34 306.54C1099.71 306.847 1098.94 307 1098.06 307H1091.89ZM1093.8 305.159H1098.06C1098.75 305.159 1099.29 304.994 1099.69 304.665C1100.08 304.335 1100.27 303.886 1100.27 303.318C1100.27 302.642 1100.08 302.111 1099.69 301.724C1099.29 301.332 1098.75 301.136 1098.06 301.136H1093.8V305.159ZM1093.8 299.398H1097.24C1097.78 299.398 1098.24 299.324 1098.63 299.176C1099.02 299.023 1099.31 298.807 1099.52 298.528C1099.73 298.244 1099.83 297.909 1099.83 297.523C1099.83 296.972 1099.6 296.54 1099.14 296.227C1098.68 295.909 1098.05 295.75 1097.24 295.75H1093.8V299.398Z" fill="black"/>
<path d="M514.705 307.239C513.58 307.239 512.577 307.045 511.696 306.659C510.821 306.273 510.125 305.736 509.608 305.048C509.097 304.355 508.818 303.551 508.773 302.636H510.92C510.966 303.199 511.159 303.685 511.5 304.094C511.841 304.497 512.287 304.81 512.838 305.031C513.389 305.253 514 305.364 514.67 305.364C515.42 305.364 516.085 305.233 516.665 304.972C517.244 304.71 517.699 304.347 518.028 303.881C518.358 303.415 518.523 302.875 518.523 302.261C518.523 301.619 518.364 301.054 518.045 300.565C517.727 300.071 517.261 299.685 516.648 299.406C516.034 299.128 515.284 298.989 514.398 298.989H513V297.114H514.398C515.091 297.114 515.699 296.989 516.222 296.739C516.75 296.489 517.162 296.136 517.457 295.682C517.759 295.227 517.909 294.693 517.909 294.08C517.909 293.489 517.778 292.974 517.517 292.537C517.256 292.099 516.886 291.759 516.409 291.514C515.938 291.27 515.381 291.148 514.739 291.148C514.136 291.148 513.568 291.259 513.034 291.48C512.506 291.696 512.074 292.011 511.739 292.426C511.403 292.835 511.222 293.33 511.193 293.909H509.148C509.182 292.994 509.457 292.193 509.974 291.506C510.491 290.812 511.168 290.273 512.003 289.886C512.844 289.5 513.767 289.307 514.773 289.307C515.852 289.307 516.778 289.526 517.551 289.963C518.324 290.395 518.918 290.966 519.332 291.676C519.747 292.386 519.955 293.153 519.955 293.977C519.955 294.96 519.696 295.798 519.179 296.491C518.668 297.185 517.972 297.665 517.091 297.932V298.068C518.193 298.25 519.054 298.719 519.673 299.474C520.293 300.224 520.602 301.153 520.602 302.261C520.602 303.21 520.344 304.062 519.827 304.818C519.315 305.568 518.616 306.159 517.73 306.591C516.844 307.023 515.835 307.239 514.705 307.239ZM538.952 293.909V295.784H532.884V307H530.872V293.909H538.952ZM546.526 307.273C545.344 307.273 544.308 306.991 543.415 306.429C542.529 305.866 541.836 305.08 541.336 304.068C540.842 303.057 540.594 301.875 540.594 300.523C540.594 299.159 540.842 297.969 541.336 296.952C541.836 295.935 542.529 295.145 543.415 294.582C544.308 294.02 545.344 293.739 546.526 293.739C547.708 293.739 548.742 294.02 549.629 294.582C550.521 295.145 551.214 295.935 551.708 296.952C552.208 297.969 552.458 299.159 552.458 300.523C552.458 301.875 552.208 303.057 551.708 304.068C551.214 305.08 550.521 305.866 549.629 306.429C548.742 306.991 547.708 307.273 546.526 307.273ZM546.526 305.466C547.424 305.466 548.163 305.236 548.742 304.776C549.322 304.315 549.751 303.71 550.029 302.96C550.308 302.21 550.447 301.398 550.447 300.523C550.447 299.648 550.308 298.832 550.029 298.077C549.751 297.321 549.322 296.71 548.742 296.244C548.163 295.778 547.424 295.545 546.526 295.545C545.629 295.545 544.89 295.778 544.31 296.244C543.731 296.71 543.302 297.321 543.023 298.077C542.745 298.832 542.606 299.648 542.606 300.523C542.606 301.398 542.745 302.21 543.023 302.96C543.302 303.71 543.731 304.315 544.31 304.776C544.89 305.236 545.629 305.466 546.526 305.466ZM554.131 310.75V305.125H555.222C555.489 304.847 555.719 304.545 555.912 304.222C556.105 303.898 556.273 303.514 556.415 303.071C556.563 302.622 556.688 302.077 556.79 301.435C556.892 300.787 556.983 300.006 557.062 299.091L557.506 293.909H565.824V305.125H567.835V310.75H565.824V307H556.142V310.75H554.131ZM557.506 305.125H563.812V295.784H559.381L559.04 299.091C558.898 300.46 558.722 301.656 558.511 302.679C558.301 303.702 557.966 304.517 557.506 305.125ZM574.357 307.307C573.528 307.307 572.775 307.151 572.099 306.838C571.423 306.52 570.886 306.062 570.488 305.466C570.09 304.864 569.891 304.136 569.891 303.284C569.891 302.534 570.039 301.926 570.335 301.46C570.63 300.989 571.025 300.619 571.519 300.352C572.013 300.085 572.559 299.886 573.156 299.756C573.758 299.619 574.363 299.511 574.971 299.432C575.766 299.33 576.411 299.253 576.906 299.202C577.406 299.145 577.769 299.051 577.996 298.92C578.229 298.79 578.346 298.562 578.346 298.239V298.17C578.346 297.33 578.116 296.676 577.656 296.21C577.201 295.744 576.511 295.511 575.585 295.511C574.624 295.511 573.871 295.722 573.326 296.142C572.781 296.562 572.397 297.011 572.175 297.489L570.266 296.807C570.607 296.011 571.062 295.392 571.63 294.949C572.204 294.5 572.829 294.187 573.505 294.011C574.187 293.83 574.857 293.739 575.516 293.739C575.937 293.739 576.42 293.79 576.965 293.892C577.516 293.989 578.048 294.19 578.559 294.497C579.076 294.804 579.505 295.267 579.846 295.886C580.187 296.506 580.357 297.335 580.357 298.375V307H578.346V305.227H578.244C578.107 305.511 577.88 305.815 577.562 306.139C577.244 306.463 576.82 306.739 576.292 306.966C575.763 307.193 575.119 307.307 574.357 307.307ZM574.664 305.5C575.46 305.5 576.13 305.344 576.675 305.031C577.227 304.719 577.641 304.315 577.92 303.821C578.204 303.327 578.346 302.807 578.346 302.261V300.42C578.261 300.523 578.073 300.616 577.783 300.702C577.499 300.781 577.17 300.852 576.795 300.915C576.425 300.972 576.065 301.023 575.712 301.068C575.366 301.108 575.085 301.142 574.869 301.17C574.346 301.239 573.857 301.349 573.403 301.503C572.954 301.651 572.59 301.875 572.312 302.176C572.039 302.472 571.903 302.875 571.903 303.386C571.903 304.085 572.161 304.614 572.678 304.972C573.201 305.324 573.863 305.5 574.664 305.5Z" fill="black"/>
<path d="M376.023 266V242.727H385.341C387.053 242.727 388.481 242.981 389.625 243.489C390.769 243.996 391.629 244.701 392.205 245.602C392.78 246.496 393.068 247.527 393.068 248.693C393.068 249.602 392.886 250.402 392.523 251.091C392.159 251.773 391.659 252.333 391.023 252.773C390.394 253.205 389.674 253.511 388.864 253.693V253.92C389.75 253.958 390.58 254.208 391.352 254.67C392.133 255.133 392.765 255.78 393.25 256.614C393.735 257.439 393.977 258.424 393.977 259.568C393.977 260.803 393.67 261.905 393.057 262.875C392.451 263.837 391.553 264.598 390.364 265.159C389.174 265.72 387.708 266 385.966 266H376.023ZM380.943 261.977H384.955C386.326 261.977 387.326 261.716 387.955 261.193C388.583 260.663 388.898 259.958 388.898 259.08C388.898 258.436 388.742 257.867 388.432 257.375C388.121 256.883 387.678 256.496 387.102 256.216C386.534 255.936 385.856 255.795 385.068 255.795H380.943V261.977ZM380.943 252.466H384.591C385.265 252.466 385.864 252.348 386.386 252.114C386.917 251.871 387.333 251.53 387.636 251.091C387.947 250.652 388.102 250.125 388.102 249.511C388.102 248.67 387.803 247.992 387.205 247.477C386.614 246.962 385.773 246.705 384.682 246.705H380.943V252.466ZM400.122 253.909H405.338C407.649 253.909 409.452 254.462 410.747 255.568C412.043 256.667 412.69 258.136 412.69 259.977C412.69 261.174 412.399 262.227 411.815 263.136C411.232 264.038 410.391 264.742 409.293 265.25C408.194 265.75 406.876 266 405.338 266H397.088V248.545H401.713V262.193H405.338C406.149 262.193 406.815 261.989 407.338 261.58C407.861 261.17 408.126 260.648 408.134 260.011C408.126 259.337 407.861 258.788 407.338 258.364C406.815 257.932 406.149 257.716 405.338 257.716H400.122V253.909ZM414.565 266V248.545H419.406V266H414.565ZM431.162 266.341C429.374 266.341 427.836 265.962 426.548 265.205C425.268 264.439 424.283 263.379 423.594 262.023C422.912 260.667 422.571 259.106 422.571 257.341C422.571 255.553 422.916 253.985 423.605 252.636C424.302 251.28 425.291 250.223 426.571 249.466C427.851 248.701 429.374 248.318 431.139 248.318C432.662 248.318 433.995 248.595 435.139 249.148C436.283 249.701 437.188 250.477 437.855 251.477C438.522 252.477 438.889 253.652 438.957 255H434.389C434.26 254.129 433.92 253.428 433.366 252.898C432.821 252.36 432.105 252.091 431.219 252.091C430.469 252.091 429.813 252.295 429.253 252.705C428.7 253.106 428.268 253.693 427.957 254.466C427.647 255.239 427.491 256.174 427.491 257.273C427.491 258.386 427.643 259.333 427.946 260.114C428.257 260.894 428.692 261.489 429.253 261.898C429.813 262.307 430.469 262.511 431.219 262.511C431.772 262.511 432.268 262.398 432.707 262.17C433.154 261.943 433.522 261.614 433.81 261.182C434.105 260.742 434.298 260.216 434.389 259.602H438.957C438.882 260.936 438.518 262.11 437.866 263.125C437.223 264.133 436.332 264.92 435.196 265.489C434.06 266.057 432.715 266.341 431.162 266.341ZM442.057 248.545H446.682V262.159H451.602V248.545H456.227V262.159H461.148V248.545H465.773V266H442.057V248.545ZM477.48 266.341C475.685 266.341 474.139 265.977 472.844 265.25C471.556 264.515 470.563 263.477 469.866 262.136C469.17 260.788 468.821 259.193 468.821 257.352C468.821 255.557 469.17 253.981 469.866 252.625C470.563 251.269 471.545 250.212 472.81 249.455C474.082 248.697 475.575 248.318 477.287 248.318C478.438 248.318 479.51 248.504 480.503 248.875C481.503 249.239 482.374 249.788 483.116 250.523C483.866 251.258 484.45 252.182 484.866 253.295C485.283 254.402 485.491 255.697 485.491 257.182V258.511H470.753V255.511H480.935C480.935 254.814 480.783 254.197 480.48 253.659C480.177 253.121 479.757 252.701 479.219 252.398C478.688 252.087 478.071 251.932 477.366 251.932C476.632 251.932 475.98 252.102 475.412 252.443C474.851 252.777 474.412 253.227 474.094 253.795C473.776 254.356 473.613 254.981 473.605 255.67V258.523C473.605 259.386 473.764 260.133 474.082 260.761C474.408 261.39 474.866 261.875 475.457 262.216C476.048 262.557 476.749 262.727 477.56 262.727C478.098 262.727 478.59 262.652 479.037 262.5C479.484 262.348 479.866 262.121 480.185 261.818C480.503 261.515 480.745 261.144 480.912 260.705L485.389 261C485.162 262.076 484.696 263.015 483.991 263.818C483.295 264.614 482.393 265.235 481.287 265.682C480.188 266.121 478.92 266.341 477.48 266.341ZM496.605 266.341C494.81 266.341 493.264 265.977 491.969 265.25C490.681 264.515 489.688 263.477 488.991 262.136C488.295 260.788 487.946 259.193 487.946 257.352C487.946 255.557 488.295 253.981 488.991 252.625C489.688 251.269 490.67 250.212 491.935 249.455C493.207 248.697 494.7 248.318 496.412 248.318C497.563 248.318 498.635 248.504 499.628 248.875C500.628 249.239 501.499 249.788 502.241 250.523C502.991 251.258 503.575 252.182 503.991 253.295C504.408 254.402 504.616 255.697 504.616 257.182V258.511H489.878V255.511H500.06C500.06 254.814 499.908 254.197 499.605 253.659C499.302 253.121 498.882 252.701 498.344 252.398C497.813 252.087 497.196 251.932 496.491 251.932C495.757 251.932 495.105 252.102 494.537 252.443C493.976 252.777 493.537 253.227 493.219 253.795C492.901 254.356 492.738 254.981 492.73 255.67V258.523C492.73 259.386 492.889 260.133 493.207 260.761C493.533 261.39 493.991 261.875 494.582 262.216C495.173 262.557 495.874 262.727 496.685 262.727C497.223 262.727 497.715 262.652 498.162 262.5C498.609 262.348 498.991 262.121 499.31 261.818C499.628 261.515 499.87 261.144 500.037 260.705L504.514 261C504.287 262.076 503.821 263.015 503.116 263.818C502.42 264.614 501.518 265.235 500.412 265.682C499.313 266.121 498.045 266.341 496.605 266.341ZM517.784 266.318V262.318H519.045C519.674 262.318 520.182 262.242 520.568 262.091C520.955 261.932 521.261 261.701 521.489 261.398C521.723 261.087 521.92 260.701 522.08 260.239L522.364 259.477L513.909 242.727H519L524.477 254.182L529.057 242.727H534.08L526.057 261.432C525.67 262.295 525.212 263.098 524.682 263.841C524.159 264.583 523.489 265.182 522.67 265.636C521.852 266.091 520.807 266.318 519.534 266.318H517.784ZM535.369 272.545V248.545H540.142V251.477H540.358C540.57 251.008 540.877 250.53 541.278 250.045C541.688 249.553 542.218 249.144 542.869 248.818C543.528 248.485 544.347 248.318 545.324 248.318C546.597 248.318 547.771 248.652 548.847 249.318C549.922 249.977 550.782 250.973 551.426 252.307C552.07 253.633 552.392 255.295 552.392 257.295C552.392 259.242 552.078 260.886 551.449 262.227C550.828 263.561 549.979 264.572 548.903 265.261C547.835 265.943 546.638 266.284 545.312 266.284C544.373 266.284 543.574 266.129 542.915 265.818C542.263 265.508 541.729 265.117 541.312 264.648C540.896 264.17 540.578 263.689 540.358 263.205H540.21V272.545H535.369ZM540.108 257.273C540.108 258.311 540.252 259.216 540.54 259.989C540.828 260.761 541.244 261.364 541.79 261.795C542.335 262.22 542.998 262.432 543.778 262.432C544.566 262.432 545.233 262.216 545.778 261.784C546.324 261.345 546.737 260.739 547.017 259.966C547.305 259.186 547.449 258.288 547.449 257.273C547.449 256.265 547.309 255.379 547.028 254.614C546.748 253.848 546.335 253.25 545.79 252.818C545.244 252.386 544.574 252.17 543.778 252.17C542.991 252.17 542.324 252.379 541.778 252.795C541.241 253.212 540.828 253.803 540.54 254.568C540.252 255.333 540.108 256.235 540.108 257.273ZM554.503 266.318V262.318H555.764C556.393 262.318 556.901 262.242 557.287 262.091C557.673 261.932 557.98 261.701 558.207 261.398C558.442 261.087 558.639 260.701 558.798 260.239L559.082 259.477L550.628 242.727H555.719L561.196 254.182L565.776 242.727H570.798L562.776 261.432C562.389 262.295 561.931 263.098 561.401 263.841C560.878 264.583 560.207 265.182 559.389 265.636C558.571 266.091 557.526 266.318 556.253 266.318H554.503ZM583.244 252.443V256.284H572.631V252.443H583.244ZM588.972 266.318V262.318H590.233C590.862 262.318 591.369 262.242 591.756 262.091C592.142 261.932 592.449 261.701 592.676 261.398C592.911 261.087 593.108 260.701 593.267 260.239L593.551 259.477L585.097 242.727H590.188L595.665 254.182L600.244 242.727H605.267L597.244 261.432C596.858 262.295 596.4 263.098 595.869 263.841C595.347 264.583 594.676 265.182 593.858 265.636C593.04 266.091 591.994 266.318 590.722 266.318H588.972ZM607.929 242.727H612.838V257.364H613.031L623.088 242.727H627.395V266H622.474V251.352H622.304L612.19 266H607.929V242.727ZM648.04 252.648V256.591H638.006V252.648H648.04ZM631.074 258.375H635.972C636.055 259.708 636.472 260.712 637.222 261.386C637.972 262.061 639.081 262.398 640.551 262.398C641.748 262.398 642.699 262.117 643.403 261.557C644.108 260.996 644.616 260.189 644.926 259.136C645.237 258.076 645.392 256.807 645.392 255.33V253.443C645.392 251.92 645.214 250.636 644.858 249.591C644.509 248.538 643.975 247.742 643.256 247.205C642.544 246.667 641.631 246.398 640.517 246.398C639.419 246.398 638.547 246.564 637.903 246.898C637.259 247.231 636.79 247.708 636.494 248.33C636.199 248.943 636.017 249.686 635.949 250.557H631.051C631.203 249.027 631.642 247.648 632.369 246.42C633.104 245.186 634.146 244.208 635.494 243.489C636.85 242.769 638.525 242.409 640.517 242.409C642.494 242.409 644.21 242.86 645.665 243.761C647.119 244.663 648.244 245.939 649.04 247.591C649.835 249.242 650.233 251.197 650.233 253.455V255.341C650.233 257.598 649.843 259.549 649.062 261.193C648.29 262.83 647.18 264.095 645.733 264.989C644.286 265.875 642.559 266.318 640.551 266.318C638.634 266.318 636.991 265.985 635.619 265.318C634.248 264.644 633.176 263.712 632.403 262.523C631.631 261.326 631.188 259.943 631.074 258.375ZM654.972 266.318V262.318H656.233C656.862 262.318 657.369 262.242 657.756 262.091C658.142 261.932 658.449 261.701 658.676 261.398C658.911 261.087 659.108 260.701 659.267 260.239L659.551 259.477L651.097 242.727H656.188L661.665 254.182L666.244 242.727H671.267L663.244 261.432C662.858 262.295 662.4 263.098 661.869 263.841C661.347 264.583 660.676 265.182 659.858 265.636C659.04 266.091 657.994 266.318 656.722 266.318H654.972ZM677.182 259.614L683.466 248.545H688.239V266H683.625V254.898L677.364 266H672.557V248.545H677.182V259.614ZM711.994 242.727V266H707.131V246.727H697.722V266H692.858V242.727H711.994Z" fill="black"/>
<path d="M877.761 271.614V262.08H879.341C879.879 261.693 880.371 261.148 880.818 260.443C881.265 259.731 881.648 258.75 881.966 257.5C882.284 256.242 882.511 254.598 882.648 252.568L883.307 242.727H898.705V262.08H901.25V271.591H896.523V266H882.489V271.614H877.761ZM885.023 262.08H893.977V246.784H887.739L887.375 252.568C887.277 254.106 887.114 255.47 886.886 256.659C886.667 257.848 886.398 258.89 886.08 259.784C885.769 260.67 885.417 261.436 885.023 262.08ZM904.151 266V248.545H911.594C913.745 248.545 915.446 248.955 916.696 249.773C917.946 250.591 918.571 251.754 918.571 253.261C918.571 254.208 918.219 254.996 917.514 255.625C916.81 256.254 915.832 256.678 914.582 256.898C915.628 256.973 916.518 257.212 917.253 257.614C917.995 258.008 918.56 258.519 918.946 259.148C919.34 259.777 919.537 260.473 919.537 261.239C919.537 262.231 919.272 263.083 918.741 263.795C918.219 264.508 917.45 265.053 916.435 265.432C915.427 265.811 914.196 266 912.741 266H904.151ZM908.662 262.375H912.741C913.416 262.375 913.942 262.216 914.321 261.898C914.707 261.572 914.901 261.129 914.901 260.568C914.901 259.947 914.707 259.458 914.321 259.102C913.942 258.746 913.416 258.568 912.741 258.568H908.662V262.375ZM908.662 255.727H911.696C912.181 255.727 912.594 255.659 912.935 255.523C913.283 255.379 913.548 255.174 913.73 254.909C913.92 254.644 914.014 254.33 914.014 253.966C914.014 253.428 913.798 253.008 913.366 252.705C912.935 252.402 912.344 252.25 911.594 252.25H908.662V255.727ZM927.565 266.33C926.452 266.33 925.459 266.136 924.588 265.75C923.717 265.356 923.027 264.777 922.52 264.011C922.02 263.239 921.77 262.277 921.77 261.125C921.77 260.155 921.948 259.341 922.304 258.682C922.66 258.023 923.145 257.492 923.759 257.091C924.372 256.689 925.069 256.386 925.849 256.182C926.637 255.977 927.463 255.833 928.327 255.75C929.342 255.644 930.16 255.545 930.781 255.455C931.402 255.356 931.853 255.212 932.134 255.023C932.414 254.833 932.554 254.553 932.554 254.182V254.114C932.554 253.394 932.327 252.837 931.872 252.443C931.425 252.049 930.789 251.852 929.963 251.852C929.092 251.852 928.399 252.045 927.884 252.432C927.368 252.811 927.027 253.288 926.861 253.864L922.384 253.5C922.611 252.439 923.058 251.523 923.724 250.75C924.391 249.97 925.251 249.371 926.304 248.955C927.365 248.53 928.592 248.318 929.986 248.318C930.955 248.318 931.884 248.432 932.77 248.659C933.664 248.886 934.455 249.239 935.145 249.716C935.842 250.193 936.391 250.807 936.793 251.557C937.194 252.299 937.395 253.189 937.395 254.227V266H932.804V263.58H932.668C932.387 264.125 932.012 264.606 931.543 265.023C931.073 265.432 930.509 265.754 929.849 265.989C929.19 266.216 928.429 266.33 927.565 266.33ZM928.952 262.989C929.664 262.989 930.293 262.848 930.838 262.568C931.384 262.28 931.812 261.894 932.122 261.409C932.433 260.924 932.588 260.375 932.588 259.761V257.909C932.437 258.008 932.228 258.098 931.963 258.182C931.705 258.258 931.414 258.33 931.088 258.398C930.762 258.458 930.437 258.515 930.111 258.568C929.785 258.614 929.49 258.655 929.224 258.693C928.656 258.777 928.16 258.909 927.736 259.091C927.312 259.273 926.982 259.519 926.747 259.83C926.512 260.133 926.395 260.511 926.395 260.966C926.395 261.625 926.634 262.129 927.111 262.477C927.596 262.818 928.209 262.989 928.952 262.989ZM947.193 271.114V262.159H948.534C948.92 261.917 949.231 261.53 949.466 261C949.708 260.47 949.905 259.845 950.057 259.125C950.216 258.405 950.337 257.629 950.42 256.795C950.511 255.955 950.591 255.106 950.659 254.25L951.114 248.545H964.5V262.159H967.205V271.114H962.591V266H951.92V271.114H947.193ZM953.352 262.159H959.932V252.273H955.227L955.045 254.25C954.917 256.114 954.731 257.697 954.489 259C954.246 260.295 953.867 261.348 953.352 262.159ZM974.651 259.614L980.935 248.545H985.707V266H981.094V254.898L974.832 266H970.026V248.545H974.651V259.614ZM989.588 266V248.545H1004.85V266H1000.22V252.352H994.156V266H989.588ZM1007.69 266L1007.67 262.159H1008.25C1008.66 262.159 1009.01 262.061 1009.3 261.864C1009.61 261.659 1009.86 261.33 1010.05 260.875C1010.25 260.42 1010.41 259.818 1010.52 259.068C1010.63 258.311 1010.71 257.379 1010.75 256.273L1011.03 248.545H1024.3V266H1019.69V252.352H1015.38L1015.11 257.682C1015.04 259.144 1014.86 260.402 1014.58 261.455C1014.3 262.508 1013.91 263.371 1013.41 264.045C1012.91 264.712 1012.3 265.205 1011.6 265.523C1010.89 265.841 1010.08 266 1009.14 266H1007.69ZM1035.94 266.341C1034.18 266.341 1032.65 265.966 1031.36 265.216C1030.08 264.458 1029.09 263.405 1028.4 262.057C1027.7 260.701 1027.35 259.129 1027.35 257.341C1027.35 255.538 1027.7 253.962 1028.4 252.614C1029.09 251.258 1030.08 250.205 1031.36 249.455C1032.65 248.697 1034.18 248.318 1035.94 248.318C1037.71 248.318 1039.23 248.697 1040.51 249.455C1041.8 250.205 1042.79 251.258 1043.49 252.614C1044.19 253.962 1044.53 255.538 1044.53 257.341C1044.53 259.129 1044.19 260.701 1043.49 262.057C1042.79 263.405 1041.8 264.458 1040.51 265.216C1039.23 265.966 1037.71 266.341 1035.94 266.341ZM1035.97 262.591C1036.77 262.591 1037.44 262.364 1037.98 261.909C1038.52 261.447 1038.92 260.818 1039.19 260.023C1039.47 259.227 1039.61 258.322 1039.61 257.307C1039.61 256.292 1039.47 255.386 1039.19 254.591C1038.92 253.795 1038.52 253.167 1037.98 252.705C1037.44 252.242 1036.77 252.011 1035.97 252.011C1035.16 252.011 1034.47 252.242 1033.92 252.705C1033.38 253.167 1032.96 253.795 1032.68 254.591C1032.41 255.386 1032.27 256.292 1032.27 257.307C1032.27 258.322 1032.41 259.227 1032.68 260.023C1032.96 260.818 1033.38 261.447 1033.92 261.909C1034.47 262.364 1035.16 262.591 1035.97 262.591ZM1058 260.648L1062.73 248.545H1066.41L1059.6 266H1056.39L1049.74 248.545H1053.41L1058 260.648ZM1052.31 248.545V266H1047.68V248.545H1052.31ZM1063.93 266V248.545H1068.5V266H1063.93ZM1077.22 266.33C1076.11 266.33 1075.12 266.136 1074.24 265.75C1073.37 265.356 1072.68 264.777 1072.18 264.011C1071.68 263.239 1071.43 262.277 1071.43 261.125C1071.43 260.155 1071.6 259.341 1071.96 258.682C1072.32 258.023 1072.8 257.492 1073.41 257.091C1074.03 256.689 1074.73 256.386 1075.51 256.182C1076.29 255.977 1077.12 255.833 1077.98 255.75C1079 255.644 1079.82 255.545 1080.44 255.455C1081.06 255.356 1081.51 255.212 1081.79 255.023C1082.07 254.833 1082.21 254.553 1082.21 254.182V254.114C1082.21 253.394 1081.98 252.837 1081.53 252.443C1081.08 252.049 1080.45 251.852 1079.62 251.852C1078.75 251.852 1078.05 252.045 1077.54 252.432C1077.02 252.811 1076.68 253.288 1076.52 253.864L1072.04 253.5C1072.27 252.439 1072.71 251.523 1073.38 250.75C1074.05 249.97 1074.91 249.371 1075.96 248.955C1077.02 248.53 1078.25 248.318 1079.64 248.318C1080.61 248.318 1081.54 248.432 1082.43 248.659C1083.32 248.886 1084.11 249.239 1084.8 249.716C1085.5 250.193 1086.05 250.807 1086.45 251.557C1086.85 252.299 1087.05 253.189 1087.05 254.227V266H1082.46V263.58H1082.32C1082.04 264.125 1081.67 264.606 1081.2 265.023C1080.73 265.432 1080.16 265.754 1079.51 265.989C1078.85 266.216 1078.09 266.33 1077.22 266.33ZM1078.61 262.989C1079.32 262.989 1079.95 262.848 1080.49 262.568C1081.04 262.28 1081.47 261.894 1081.78 261.409C1082.09 260.924 1082.24 260.375 1082.24 259.761V257.909C1082.09 258.008 1081.88 258.098 1081.62 258.182C1081.36 258.258 1081.07 258.33 1080.74 258.398C1080.42 258.458 1080.09 258.515 1079.77 258.568C1079.44 258.614 1079.15 258.655 1078.88 258.693C1078.31 258.777 1077.82 258.909 1077.39 259.091C1076.97 259.273 1076.64 259.519 1076.4 259.83C1076.17 260.133 1076.05 260.511 1076.05 260.966C1076.05 261.625 1076.29 262.129 1076.77 262.477C1077.25 262.818 1077.87 262.989 1078.61 262.989Z" fill="black"/>
<defs>
<clipPath id="clip0_1_28">
<rect width="200" height="200" fill="white" transform="translate(858)"/>
</clipPath>
<clipPath id="clip1_1_28">
<rect width="200" height="200" fill="white" transform="translate(33)"/>
</clipPath>
</defs>
</svg>
